# xmcd
# 
# Track frame offsets:
#     150
#     16049
#     40949
#     65205
#     84252
#     111105
#     146102
#     173019
#     195957
#     227606
#     243887
#     262675
#     284604
#     297187
#     318223
# 
# Disc length: 4370
# 
# Revision: 2
# Processed by: cddbd v1.5.2PL0 Copyright (c) Steve Scherf et al.
# Submitted via: fre:ac v1.1beta1pre4
# 
DISCID=c411100f
DTITLE=Various Artist - Blues For Bagdad
DYEAR=2004
DGENRE=Blues
TTITLE0=Fat Tuesday and the Greasfire Horns - Soul Man
TTITLE1=Sumpin' Doo - I've Got A Twenty Room House
TTITLE2=Tom Gary and Dennis Kain - Roberta
TTITLE3=Mr. B and Company - Nasty habits
TTITLE4=Blues Burear - Mojo Boggie
TTITLE5=Bob Pace Band - Junior's Blues
TTITLE6=Fat Tuesday with Tina Haase - Chain of Fools
TTITLE7=Soul Searchers - Sugar Coated Love
TTITLE8=Sumpin' Doo - Let's Get It On
TTITLE9=Tom Gary and Dennis Kain - Mr. Crump's Blues
TTITLE10=Soul Searchers - Don't Let Go
TTITLE11=Blues Bureau - State Of The Blues
TTITLE12=Fat Tuesday with Jimmy Prior - What A Wonderful World
TTITLE13=Mr. B and Company - My Little Brother
TTITLE14=Bob Pace - Star Spangled Banner
EXTD=Performed at Blues On Grand, Des Moines, Iowa on 4/18/2004
EXTT0=
EXTT1=
EXTT2=
EXTT3=
EXTT4=
EXTT5=
EXTT6=
EXTT7=
EXTT8=
EXTT9=
EXTT10=
EXTT11=
EXTT12=
EXTT13=
EXTT14=
PLAYORDER=
